<svg width="32" height="32" viewBox="0 0 32 32" fill="none" xmlns="http://www.w3.org/2000/svg">
  <rect width="32" height="32" rx="6" fill="#3B82F6"/>
  <path d="M8 11C8 9.89543 8.89543 9 10 9H14C15.1046 9 16 9.89543 16 11V14C16 15.1046 15.1046 16 14 16H10C8.89543 16 8 15.1046 8 14V11Z" fill="white"/>
  <path d="M18 11C18 9.89543 18.8954 9 20 9H22C23.1046 9 24 9.89543 24 11V14C24 15.1046 23.1046 16 22 16H20C18.8954 16 18 15.1046 18 14V11Z" fill="white"/>
  <path d="M8 18C8 16.8954 8.89543 16 10 16H14C15.1046 16 16 16.8954 16 18V21C16 22.1046 15.1046 23 14 23H10C8.89543 23 8 22.1046 8 21V18Z" fill="white"/>
  <circle cx="21" cy="19.5" r="3.5" fill="#10B981"/>
</svg>
